<svg xmlns="http://www.w3.org/2000/svg" width="20" height="24" viewBox="0 0 20 24">
    <g fill="none" fill-rule="evenodd">
        <path fill="#169B64" d="M8.414 18.934c-1.193-.674-.693-1.174-3.056-2.02-1.575-.565-3.064-.916-4.465-1.054 1.569-.704 3.162-.926 4.782-.665 2.429.39 2.46 1.274 3.603 2.417.762.763 1.937 1.443 3.523 2.041-2.13-.03-3.592-.27-4.387-.719zM19.21 7.87c.845 1.315.614 3.604-.692 6.866.019-2.88-.276-4.744-.887-5.592-.715-.995-1.358-1.206-1.73-3.878-.25-1.78.035-3.536.851-5.266-.427 1.363-.03 3.291 1.19 5.785.212.435.002.111 1.268 2.085zm-7.988 3.875c-.6-.758-1.222-1.865-3.7-3.864-1.652-1.334-2.94-2.154-3.863-2.462 1.96-.348 3.704-.043 5.234.916 2.294 1.439 4.093 3.592 4.79 4.607.697 1.015 2.954 4.377 3.427 7.825.635 4.628 4.402 4.707 2.603 4.36-1.8-.346-4.221-.11-5.242-4.576-.693-3.03-2.861-6.315-3.25-6.806z"/>
        <path fill="#F4D45F" d="M7.52 19.139c-1.193-.674-.692-1.175-3.055-2.021C2.889 16.554 1.4 16.203 0 16.065c1.568-.704 3.162-.926 4.781-.666 2.43.391 2.46 1.275 3.604 2.418.762.762 1.936 1.443 3.523 2.041-2.13-.03-3.592-.27-4.388-.72zM18.318 8.075c.844 1.315.613 3.604-.693 6.866.02-2.88-.276-4.744-.886-5.592-.716-.996-1.359-1.206-1.731-3.878-.249-1.78.036-3.536.852-5.266-.427 1.363-.03 3.291 1.189 5.785.213.435.003.111 1.27 2.085zM10.33 11.95c-.599-.758-1.222-1.865-3.7-3.865C4.979 6.752 3.69 5.932 2.768 5.624 4.727 5.276 6.471 5.58 8 6.54c2.295 1.438 4.093 3.592 4.79 4.607.698 1.015 2.955 4.377 3.428 7.825.634 4.628 4.402 4.707 2.603 4.36-1.8-.346-4.221-.11-5.243-4.576-.693-3.03-2.86-6.315-3.249-6.806z"/>
    </g>
</svg>
