<svg xmlns="http://www.w3.org/2000/svg" width="141" height="43" viewBox="0 0 141 43">
    <g fill="none" fill-rule="evenodd">
        <g transform="translate(49.115)">
            <path fill="#F4D45F" d="M15.809.281c-2.025.41-5.182 5.47-5.67 8.6-.49 3.13.267 4.457 3.066 6.144 1.276.768 2.622 1.091 3.6 1.231 1.088.156 2.249.417 4.798.417 2.17 0 4.068-.215 5.599-.417 1.88-.248 3.104-.554 3.997-1.231 1.62-1.229 3.645-2.867 2.43-6.144-1.215-3.276-3.788-7.648-5.67-8.6-1.882-.952-3.059.82-6.075.82-3.017 0-4.05-1.23-6.075-.82z"/>
            <path fill="#F4D45F" d="M16.614 16.674c.293-.042.15 1.907-.43 5.847-.87 5.91-2.424 7.767-2.153 11.696.271 3.928.861 5.068 3.444 6.237 2.582 1.17 7.747.78 9.038 0 1.292-.78 3.07-.81 3.444-6.237.374-5.428-1.803-8.847-2.152-11.696a24.545 24.545 0 0 1 0-5.847c-1.92.263-3.855.395-5.805.395-1.95 0-3.746-.132-5.386-.395z"/>
            <path fill="#F4D45F" d="M29 38.773c2.178.83 4.32.532 6.429-.895C37.143 36.718 38 35.17 38 33.236c0-3.643-1.361-5.463-3.857-6.576-1.211-.54-2.789-.926-4.734-1.16.87 2.633 1.305 4.696 1.305 6.189 0 3.868-.571 6.23-1.714 7.084zM13.18 31.49c-2.538.208-4.934-.778-7.189-2.956C2.531 25.191 7.41 18.103 7 17.71c-.41-.394-5.699 1.181-6.928 9.45-.422 2.842 1.015 6.824 4.097 8.663C7.323 37.706 10.6 38.493 14 38.185c-.475-.93-.748-1.98-.82-3.15a29.236 29.236 0 0 1 0-3.544z"/>
            <ellipse cx="16" cy="6.375" fill="#224398" rx="1" ry="1.471"/>
            <ellipse cx="27" cy="6.375" fill="#224398" rx="1" ry="1.471"/>
        </g>
        <path fill="#169B64" d="M10.05 37.966c-1.208-.676-.695-1.19-3.092-2.03-1.598-.562-3.109-.907-4.532-1.035 1.6-.73 3.224-.968 4.869-.716 2.467.377 2.492 1.276 3.645 2.43.77.768 1.958 1.45 3.567 2.046-2.166-.013-3.652-.244-4.457-.695zm11.074-11.344c.848 1.331.594 3.661-.76 6.99.042-2.929-.243-4.823-.856-5.68-.72-1.007-1.373-1.216-1.73-3.93-.237-1.81.066-3.598.911-5.364-.446 1.39-.058 3.348 1.162 5.874.212.441.002.114 1.273 2.11zm-8.158 4.008c-.603-.766-1.227-1.887-3.731-3.9-1.67-1.343-2.972-2.167-3.909-2.473 1.996-.37 3.768-.073 5.316.89 2.322 1.444 4.134 3.62 4.834 4.646.701 1.027 2.97 4.428 3.422 7.931.607 4.703 4.439 4.752 2.612 4.414-1.828-.338-4.293-.077-5.295-4.611-.68-3.078-2.858-6.4-3.249-6.897z"/>
        <path fill="#F4D45F" d="M8.07 37.985c-1.209-.676-.696-1.189-3.093-2.03-1.597-.562-3.108-.906-4.532-1.035 1.6-.73 3.224-.968 4.869-.716 2.467.378 2.492 1.276 3.645 2.43.77.768 1.958 1.45 3.567 2.046-2.166-.012-3.651-.244-4.457-.695zm11.074-11.344c.847 1.332.594 3.662-.762 6.99.044-2.929-.242-4.822-.855-5.68-.72-1.007-1.372-1.216-1.73-3.93-.237-1.81.066-3.598.911-5.364-.445 1.39-.058 3.348 1.162 5.875.213.44.002.113 1.274 2.11zm-8.158 4.008c-.604-.766-1.228-1.886-3.732-3.9-1.67-1.343-2.972-2.167-3.909-2.472 1.997-.37 3.768-.074 5.316.889 2.322 1.444 4.134 3.62 4.835 4.646.7 1.027 2.969 4.428 3.421 7.932.608 4.702 4.44 4.751 2.612 4.413-1.828-.337-4.293-.077-5.295-4.611-.68-3.077-2.858-6.4-3.248-6.897z"/>
        <g>
            <path fill="#169B64" d="M129.05 37.966c-1.208-.676-.695-1.19-3.092-2.03-1.598-.562-3.109-.907-4.532-1.035 1.6-.73 3.224-.968 4.869-.716 2.467.377 2.492 1.276 3.645 2.43.77.768 1.958 1.45 3.567 2.046-2.166-.013-3.652-.244-4.457-.695zm11.074-11.344c.848 1.331.594 3.661-.76 6.99.042-2.929-.243-4.823-.856-5.68-.72-1.007-1.373-1.216-1.73-3.93-.237-1.81.066-3.598.911-5.364-.446 1.39-.058 3.348 1.162 5.874.212.441.002.114 1.273 2.11zm-8.158 4.008c-.603-.766-1.227-1.887-3.731-3.9-1.67-1.343-2.972-2.167-3.909-2.473 1.996-.37 3.768-.073 5.316.89 2.322 1.444 4.134 3.62 4.834 4.646.701 1.027 2.97 4.428 3.422 7.931.607 4.703 4.439 4.752 2.612 4.414-1.828-.338-4.293-.077-5.295-4.611-.68-3.078-2.858-6.4-3.249-6.897z"/>
            <path fill="#F4D45F" d="M127.07 37.985c-1.209-.676-.696-1.189-3.093-2.03-1.597-.562-3.108-.906-4.532-1.035 1.6-.73 3.224-.968 4.869-.716 2.467.378 2.492 1.276 3.645 2.43.77.768 1.958 1.45 3.567 2.046-2.166-.012-3.651-.244-4.457-.695zm11.074-11.344c.847 1.332.594 3.662-.762 6.99.044-2.929-.242-4.822-.855-5.68-.72-1.007-1.372-1.216-1.73-3.93-.237-1.81.066-3.598.911-5.364-.445 1.39-.058 3.348 1.162 5.875.213.44.002.113 1.274 2.11zm-8.158 4.008c-.604-.766-1.228-1.886-3.732-3.9-1.67-1.343-2.972-2.167-3.909-2.472 1.997-.37 3.768-.074 5.316.889 2.322 1.444 4.134 3.62 4.835 4.646.7 1.027 2.969 4.428 3.421 7.932.608 4.702 4.44 4.751 2.612 4.413-1.828-.337-4.293-.077-5.295-4.611-.68-3.077-2.858-6.4-3.248-6.897z"/>
        </g>
    </g>
</svg>
